# AST/ASF file generated using VICON BodyLanguage
# -----------------------------------------------
:version 1.10
:name VICON
:units
  mass 1.0
  length 0.45
  angle deg
:documentation
   .ast/.asf automatically generated from VICON data using
   VICON BodyBuilder and BodyLanguage model FoxedUp or BRILLIANT.MOD
:root
   order TX TY TZ RX RY RZ
   axis XYZ
   position 0 0 0  
   orientation 0 0 0 
:bonedata
  begin
     id 1 
     name lhipjoint
     direction 0.64773 -0.699417 0.302095 
     length 2.48597 
     axis 0 0 0  XYZ
  end
  begin
     id 2 
     name lfemur
     direction 0.34202 -0.939693 0  
     length 6.71947  
     axis 0 0 20  XYZ
    dof rx ry rz
    limits (-160.0 20.0)
           (-70.0 70.0)
           (-60.0 70.0)
  end
  begin
     id 3 
     name ltibia
     direction 0.34202 -0.939693 0   
     length 8.08777   
     axis 0 0 20   XYZ
    dof rx
    limits (-10.0 170.0)
  end
  begin
     id 4 
     name lfoot
     direction 0.0808503 -0.222134 0.971658   
     length 2.08264   
     axis -90 7.62852e-016 20   XYZ
    dof rx rz
    limits (-45.0 90.0)
           (-70.0 20.0)
  end
  begin
     id 5 
     name ltoes
     direction 1.53502e-011 -4.22007e-011 1   
     length 1.04662   
     axis -90 7.62852e-016 20   XYZ
    dof rx
    limits (-90.0 20.0)
  end
  begin
     id 6 
     name rhipjoint
     direction -0.610924 -0.726792 0.313919   
     length 2.39233  
     axis 0 0 0  XYZ 
  end
  begin
     id 7 
     name rfemur
     direction -0.34202 -0.939693 0   
     length 6.96955   
     axis 0 0 -20   XYZ
    dof rx ry rz
    limits (-160.0 20.0)
           (-70.0 70.0)
           (-70.0 60.0)
  end
  begin
     id 8 
     name rtibia
     direction -0.34202 -0.939693 0   
     length 8.19584   
     axis 0 0 -20   XYZ
    dof rx
    limits (-10.0 170.0)
 end
 begin
     id 9 
     name rfoot
     direction -0.077777 -0.213691 0.9738   
     length 2.07539  
     axis -90 -7.62852e-016 -20   XYZ
    dof rx rz
    limits (-45.0 90.0)
           (-20.0 70.0)
  end
  begin
     id 10 
     name rtoes
     direction -1.53558e-011 -4.22006e-011 1   
     length 1.04381   
     axis -90 -7.62852e-016 -20   XYZ
    dof rx
    limits (-90.0 20.0)
  end
  begin
     id 11 
     name lowerback
     direction -0.00971646 0.996074 0.0879841   
     length 1.67643   
     axis 0 0 0   XYZ
    dof rx ry rz
    limits (-20.0 45.0)
           (-30.0 30.0)
           (-30.0 30.0)
  end
  begin
     id 12 
     name upperback
     direction 0.0127391 0.991676 0.128127   
     length 1.63741   
     axis 0 0 0   XYZ
    dof rx ry rz
    limits (-20.0 45.0)
           (-30.0 30.0)
           (-30.0 30.0)
  end
  begin
     id 13 
     name thorax
     direction 0.0167583 0.996049 0.0872067   
     length 1.65931   
     axis 0 0 0   XYZ
    dof rx ry rz
    limits (-20.0 45.0)
           (-30.0 30.0)
           (-30.0 30.0)
  end
  begin
     id 14 
     name lowerneck
     direction -0.0317829 0.998312 0.0486079   
     length 1.79021   
     axis 0 0 0   XYZ
    dof rx ry rz
    limits (-20.0 45.0)
           (-30.0 30.0)
           (-30.0 30.0)
  end
  begin
     id 15 
     name upperneck
     direction 0.0896851 0.972452 -0.215159   
     length 1.78797   
     axis 0 0 0   XYZ
    dof rx ry rz
    limits (-20.0 45.0)
           (-30.0 30.0)
           (-30.0 30.0)
  end
  begin
     id 16
     name head
     direction 0.0310949 0.996503 -0.0775582  
     length 1.81549  
     axis 0 0 0   XYZ
    dof rx ry rz
    limits (-20.0 45.0)
           (-30.0 30.0)
           (-30.0 30.0)
  end
  begin
     id 17 
     name lclavicle
     direction 0.853638 0.502051 -0.138733  
     length 3.31627  
     axis 0 0 0   XYZ
    dof ry rz
    limits (-20.0 10.0)
           (0.0 20.0)
  end
  begin
     id 18 
     name lhumerus
     direction 1 -4.48962e-011 -1.41788e-018   
     length 5.54893   
     axis 180 -30 -90   XYZ
    dof rx ry rz
    limits (-60.0 90.0)
           (-90.0 90.0)
           (-90.0 90.0)
  end
  begin
     id 19
     name lradius
     direction 1 -4.48962e-011 -4.95754e-027   
     length 3.02898   
     axis 180 -30 -90   XYZ
    dof rx
    limits (-10.0 170.0)
  end
  begin
     id 20
     name lwrist
     direction 1 -4.48952e-011 -1.03764e-026   
     length 1.51449   
     axis 9.09556e-015 90 90   XYZ
    dof ry
    limits (-180.0 0.0)
 end
  begin
     id 21 
     name lhand
     direction 1 -4.4902e-011 -2.07528e-026   
     length 0.640951   
     axis 1.3242e-014 90 90   XYZ
    dof rx rz
    limits (-90.0 90.0)
           (-45.0 45.0)
  end
  begin
     id 22 
     name lfingers
     direction 1 -4.49014e-011 -4.15056e-026   
     length 0.516751   
     axis 2.64841e-014 90 90   XYZ
    dof rx
    limits (0.0 90.0)
  end
  begin
     id 23
     name lthumb
     direction 0.707107 -6.35008e-011 0.707107   
     length 0.741954   
     axis -90 45 2.85299e-015   XYZ
    dof rx rz
    limits (-45.0 45.0)
           (-45.0 45.0)
  end
  begin
     id 24 
     name rclavicle
     direction -0.888531 0.455324 -0.0565039   
     length 3.20126  
     axis 0 0 0   XYZ 
    dof ry rz
    limits (-10.0 20.0)
           (-20.0 0.0)
  end
  begin
     id 25 
     name rhumerus
     direction -1 -4.48946e-011 -8.98298e-028  
     length 5.3519   
     axis 180 30 90   XYZ
    dof rx ry rz
    limits (-90.0 60.0)
           (-90.0 90.0)
           (-90.0 90.0)
  end
  begin
     id 26 
     name rradius
     direction -1 -4.4899e-011 -3.18779e-027   
     length 3.02531   
     axis 180 30 90   XYZ
    dof rx
    limits (-10.0 170.0)
  end
  begin
     id 27 
     name rwrist
     direction -1 -4.4897e-011 -1.03764e-026   
     length 1.51266   
     axis 9.09556e-015 -90 -90   XYZ
    dof ry
    limits (-180.0 0.0)
  end
  begin
     id 28
     name rhand
     direction -1 -4.48941e-011 -2.07528e-026   
     length 0.78389   
     axis 1.3242e-014 -90 -90   XYZ
    dof rx rz
    limits (-90.0 90.0)
           (-45.0 45.0)
  end
  begin
     id 29
     name rfingers
     direction -1 -4.49012e-011 -4.15056e-026   
     length 0.631992   
     axis 2.64841e-014 -90 -90   XYZ
    dof rx
    limits (0.0 90.0)
  end
  begin
     id 30
     name rthumb
     direction -0.707107 -6.3496e-011 0.707107   
     length 0.907418   
     axis -90 -45 -2.85299e-015   XYZ
    dof rx rz
    limits (-45.0 45.0)
           (-45.0 45.0)
  end
:hierarchy
  begin
    root lhipjoint rhipjoint lowerback
    lhipjoint lfemur
    lfemur ltibia
    ltibia lfoot
    lfoot ltoes
    rhipjoint rfemur
    rfemur rtibia
    rtibia rfoot
    rfoot rtoes
    lowerback upperback
    upperback thorax
    thorax lowerneck lclavicle rclavicle
    lowerneck upperneck
    upperneck head
    lclavicle lhumerus
    lhumerus lradius
    lradius lwrist
    lwrist lhand lthumb
    lhand lfingers
    rclavicle rhumerus
    rhumerus rradius
    rradius rwrist
    rwrist rhand rthumb
    rhand rfingers
  end

#!OML:ASF E:\Style3\Style3.ASF
:FULLY-SPECIFIED
:DEGREES
861
root -2.02667 17.3076 1.04233 -631.162 93.8105 -652.449
lowerback 20.2833 -9.73369 -3.72814
upperback 0.764461 -13.5301 0.542746
thorax -9.30262 -6.22324 6.26996
lowerneck -4.29211 16.1657 0.462283
upperneck -12.2024 21.2356 -8.41255
head -2.2081 10.9499 -2.72425
rclavicle -5.56597e-014 -3.18055e-015
rhumerus -52.7377 -27.8415 4.28688
rradius 40.1646
rwrist -38.6189
rhand -6.43341 8.57953
rfingers 7.12502
rthumb 19.4157 -20.4711
lclavicle -5.56597e-014 -3.18055e-015
lhumerus 89.0211 -54.0407 27.2791
lradius 69.5865
lwrist 54.5996
lhand 5.79055 28.1465
lfingers 7.12502
lthumb 31.1237 55.5243
rfemur -43.9446 -0.775299 20.9706
rtibia 36.2972
rfoot -13.2342 -6.69287
rtoes -17.9582
lfemur -42.7159 3.99255 -11.1653
ltibia 34.3925
lfoot -11.291 6.62054
ltoes -21.7091
862
root -2.01773 17.3078 1.04968 -631.476 93.6439 -652.596
lowerback 20.3723 -9.64615 -4.24196
upperback 0.630571 -13.5446 0.567753
thorax -9.37444 -6.20171 6.59302
lowerneck -4.22004 16.1635 0.344685
upperneck -11.8412 21.2333 -8.38721
head -2.11434 10.9389 -2.68197
rclavicle -1.19271e-014 -3.18055e-015
rhumerus -52.0248 -27.5685 6.07189
rradius 41.2173
rwrist -39.2213
rhand -6.07218 9.25422
rfingers 7.12502
rthumb 19.763 -19.7611
lclavicle -1.19271e-014 -3.18055e-015
lhumerus 89.9341 -53.4281 26.8269
lradius 71.3911
lwrist 55.8906
lhand 6.37414 28.0331
lfingers 7.12502
lthumb 31.6798 55.3027
rfemur -43.7228 -0.543273 20.7063
rtibia 36.281
rfoot -13.2459 -6.94753
rtoes -18.3988
lfemur -42.261 3.84779 -11.2677
ltibia 34.0604
lfoot -11.2531 6.74977
ltoes -21.7729
863
root -2.00493 17.3126 1.05363 -630.863 93.6382 -651.825
lowerback 20.152 -9.63129 -4.24156
upperback 0.653606 -13.5354 0.380786
thorax -9.27872 -6.20933 6.34823
lowerneck -4.21943 16.1417 0.369564
upperneck -11.5514 21.2163 -8.22093
head -2.03465 10.9146 -2.61542
rclavicle 3.89618e-014 3.81667e-014
rhumerus -51.5467 -27.3812 7.56409
rradius 42.3323
rwrist -39.7287
rhand -5.80626 9.74918
rfingers 7.12502
rthumb 20.0186 -19.2396
lclavicle 3.89618e-014 3.81667e-014
lhumerus 91.4655 -52.5453 25.301
lradius 73.3987
lwrist 57.3456
lhand 6.2845 27.671
lfingers 7.12502
lthumb 31.5944 54.9575
rfemur -43.4552 -0.39016 20.6709
rtibia 36.2563
rfoot -13.2932 -7.06472
rtoes -18.5245
lfemur -41.8344 3.76812 -11.2093
ltibia 33.7781
lfoot -11.203 6.88277
ltoes -21.8322
864
root -1.99172 17.321 1.05768 -630.082 93.6283 -650.935
lowerback 19.8361 -9.63207 -4.17537
upperback 0.710155 -13.5302 0.143004
thorax -9.12124 -6.2274 5.99598
lowerneck -4.40609 16.1262 0.420196
upperneck -11.1896 21.2197 -7.95625
head -1.90815 10.8947 -2.49957
rclavicle -3.18055e-015 -1.59028e-014
rhumerus -51.0368 -27.3015 8.89906
rradius 43.41
rwrist -40.1617
rhand -5.51177 10.2139
rfingers 7.12502
rthumb 20.3016 -18.7451
lclavicle -3.18055e-015 -1.59028e-014
lhumerus 92.8567 -51.4879 23.8104
lradius 75.4327
lwrist 58.8357
lhand 6.304 27.6509
lfingers 7.12502
lthumb 31.613 54.9337
rfemur -43.2345 -0.244017 20.6468
rtibia 36.2054
rfoot -13.3187 -7.20341
rtoes -18.7222
lfemur -41.4941 3.72746 -11.1711
ltibia 33.5414
lfoot -11.2202 6.99497
ltoes -21.841
865
root -1.98274 17.3266 1.06301 -629.877 93.5279 -650.604
lowerback 19.6878 -9.60989 -4.34024
upperback 0.712739 -13.5486 -0.0286609
thorax -9.0423 -6.23825 5.87449
lowerneck -4.41416 16.1593 0.491043
upperneck -11.0037 21.2711 -7.84138
head -1.84898 10.9087 -2.45932
rclavicle 9.54166e-015 -3.18055e-015
rhumerus -50.3228 -27.214 10.141
rradius 44.4161
rwrist -40.5671
rhand -5.17672 10.8827
rfingers 7.12502
rthumb 20.6236 -18.0416
lclavicle 9.54166e-015 -3.18055e-015
lhumerus 93.6105 -50.5464 23.0338
lradius 77.4535
lwrist 60.1309
lhand 6.63147 27.6671
lfingers 7.12502
lthumb 31.9248 54.8881
rfemur -43.0436 -0.172326 20.5391
rtibia 36.1561
rfoot -13.3199 -7.25289
rtoes -18.8966
lfemur -41.1839 3.65213 -11.23
ltibia 33.3453
lfoot -11.2337 7.0755
ltoes -22.1267
866
root -1.97804 17.3288 1.06928 -629.952 93.4562 -650.577
lowerback 19.661 -9.56984 -4.5186
upperback 0.678413 -13.5484 -0.147501
thorax -9.05569 -6.23115 5.83932
lowerneck -4.37804 16.1786 0.550332
upperneck -10.8826 21.2974 -7.80001
head -1.81238 10.9147 -2.44844
rclavicle 1.52667e-013 1.27222e-014
rhumerus -49.4067 -26.846 11.1267
rradius 45.4231
rwrist -41.5591
rhand -5.07772 11.3496
rfingers 7.12502
rthumb 20.7187 -17.5644
lclavicle 1.52667e-013 1.27222e-014
lhumerus 94.2143 -49.7115 22.4801
lradius 79.3883
lwrist 61.27
lhand 6.94284 27.5134
lfingers 7.12502
lthumb 32.2213 54.6748
rfemur -42.9067 -0.0908095 20.458
rtibia 36.1299
rfoot -13.3249 -7.33165
rtoes -18.7951
lfemur -40.9474 3.59747 -11.2714
ltibia 33.1635
lfoot -11.1677 7.16483
ltoes -22.5968
867
root -1.97403 17.3318 1.07614 -630.069 93.3897 -650.59
lowerback 19.5908 -9.51026 -4.63426
upperback 0.685563 -13.5057 -0.299396
thorax -9.02675 -6.21004 5.71518
lowerneck -4.2926 16.1658 0.717758
upperneck -10.8554 21.2724 -7.84161
head -1.79591 10.8971 -2.4869
rclavicle -6.04305e-014 3.18055e-014
rhumerus -48.4788 -26.1473 11.8547
rradius 46.6008
rwrist -43.2644
rhand -5.34916 11.5784
rfingers 7.12502
rthumb 20.4579 -17.3638
lclavicle -6.04305e-014 3.18055e-014
lhumerus 94.9038 -48.9019 21.8395
lradius 81.2166
lwrist 61.9542
lhand 7.21939 27.0747
lfingers 7.12502
lthumb 32.4845 54.1823
rfemur -42.7725 -0.0286406 20.3839
rtibia 36.1408
rfoot -13.3783 -7.37408
rtoes -18.4917
lfemur -40.6974 3.49144 -11.2786
ltibia 32.9853
lfoot -11.1381 7.23758
ltoes -22.4844
868
root -1.97124 17.3354 1.08371 -631.36 93.2763 -651.767
lowerback 19.4833 -9.45125 -4.73941
upperback 0.721663 -13.4609 -0.505276
thorax -8.96151 -6.19169 5.51859
lowerneck -4.19491 16.1421 0.926444
upperneck -10.8461 21.2322 -7.88848
head -1.78313 10.8716 -2.53484
rclavicle 4.77083e-014 -3.18055e-015
rhumerus -47.6067 -25.324 12.4935
rradius 47.7469
rwrist -44.9294
rhand -5.57762 11.6736
rfingers 7.12502
rthumb 20.2383 -17.2921
lclavicle 4.77083e-014 -3.18055e-015
lhumerus 95.4881 -48.0359 21.2078
lradius 83.0621
lwrist 62.5768
lhand 7.83941 26.5766
lfingers 7.12502
lthumb 33.0743 53.561
rfemur -42.6405 0.0118946 20.231
rtibia 36.1758
rfoot -13.4469 -7.46456
rtoes -17.6445
lfemur -40.4566 3.30047 -11.3462
ltibia 32.8218
lfoot -11.0885 7.37586
ltoes -22.6299
869
root -1.96844 17.3386 1.09052 -632.609 93.1767 -652.889
lowerback 19.4154 -9.34739 -4.89765
upperback 0.767937 -13.3617 -0.639992
thorax -8.88173 -6.1448 5.41718
lowerneck -4.25266 16.0882 0.896373
upperneck -10.7798 21.1697 -7.78374
head -1.76933 10.8368 -2.49254
rclavicle 6.83819e-014 3.49861e-014
rhumerus -46.7173 -24.6693 13.2148
rradius 48.6445
rwrist -46.1642
rhand -5.55497 12.2096
rfingers 7.12502
rthumb 20.2601 -16.7538
lclavicle 6.83819e-014 3.49861e-014
lhumerus 95.8608 -47.1293 20.9636
lradius 84.7745
lwrist 63.1249
lhand 9.36324 26.1211
lfingers 7.12502
lthumb 34.5221 52.7874
rfemur -42.5006 -0.00403028 20.1281
rtibia 36.2168
rfoot -13.4528 -7.53234
rtoes -18.0836
lfemur -40.2197 3.17863 -11.42
ltibia 32.6729
lfoot -11.0822 7.44037
ltoes -22.568
870
root -1.96879 17.3381 1.09727 -634.059 93.1295 -654.243
lowerback 19.3894 -9.25631 -4.97312
upperback 0.809491 -13.2635 -0.773934
thorax -8.84826 -6.09823 5.28426
lowerneck -4.44667 16.0383 0.888041
upperneck -10.6498 21.1167 -7.65541
head -1.71214 10.8031 -2.42764
rclavicle 5.725e-014 -6.04305e-014
rhumerus -45.7598 -24.1684 13.813
rradius 49.3697
rwrist -47.1614
rhand -5.54991 12.9676
rfingers 7.12502
rthumb 20.265 -15.9952
lclavicle 5.725e-014 -6.04305e-014
lhumerus 96.0306 -46.2678 20.8937
lradius 86.3882
lwrist 63.7191
lhand 10.5285 25.6418
lfingers 7.12502
lthumb 35.6274 52.049
rfemur -42.4147 -0.0140457 20.0697
rtibia 36.2795
rfoot -13.4982 -7.5591
rtoes -18.9436
lfemur -40.0582 3.13826 -11.4729
ltibia 32.5485
lfoot -11.0566 7.41796
ltoes -22.419
871
root -1.97024 17.3395 1.10698 -636.121 93.1061 -656.231
lowerback 19.3614 -9.19856 -5.06679
upperback 0.852825 -13.2107 -0.886736
thorax -8.79759 -6.07351 5.19193
lowerneck -4.49678 16.0195 0.892878
upperneck -10.7391 21.0947 -7.6185
head -1.73791 10.7938 -2.42003
rclavicle -9.70069e-014 -3.18055e-014
rhumerus -44.6335 -23.6184 14.2257
rradius 50.1314
rwrist -48.0353
rhand -5.51839 13.2682
rfingers 7.12502
rthumb 20.2953 -15.6914
lclavicle -9.70069e-014 -3.18055e-014
lhumerus 95.8901 -45.3933 21.1872
lradius 87.7788
lwrist 64.7909
lhand 11.5865 25.2013
lfingers 7.12502
lthumb 36.6295 51.3607
rfemur -42.3756 -0.00698333 20.0154
rtibia 36.3739
rfoot -13.529 -7.63785
rtoes -19.1164
lfemur -39.9452 3.04519 -11.4883
ltibia 32.4594
lfoot -10.9931 7.42127
ltoes -22.4979
872
root -1.97408 17.3385 1.11651 -638.142 93.0305 -658.239
lowerback 19.3926 -9.13511 -5.25079
upperback 0.82938 -13.1785 -0.989669
thorax -8.82861 -6.04834 5.17902
lowerneck -4.36412 16.0121 1.03448
upperneck -10.9535 21.0724 -7.71565
head -1.80552 10.7876 -2.49403
rclavicle 1.90833e-014 -4.77083e-014
rhumerus -43.3884 -22.9868 14.4944
rradius 50.8218
rwrist -48.8584
rhand -5.50281 13.5482
rfingers 7.12502
rthumb 20.3102 -15.4099
lclavicle 1.90833e-014 -4.77083e-014
lhumerus 95.5666 -44.5633 21.6028
lradius 89.1012
lwrist 65.9037
lhand 12.5653 24.8295
lfingers 7.12502
lthumb 37.5552 50.7483
rfemur -42.4603 -0.0131772 19.9048
rtibia 36.5194
rfoot -13.5024 -7.7614
rtoes -19.2608
lfemur -39.9512 2.95079 -11.5588
ltibia 32.4289
lfoot -10.9149 7.42002
ltoes -22.3695
